# xmcd
#
# Track frame offsets:
#	150
#	15577
#	26204
#	44782
#	55696
#	70812
#	86419
#	100088
#	114895
#	130730
#	145025
#	158347
#	170914
#	184370
#	206811
#	220781
#	234235
#	246365
#	263504
#	275075
#	292932
#
# Disc length: 4115 seconds
#
# Revision: 1
# Processed by: cddbd v1.5.2PL0 Copyright (c) Steve Scherf et al.
# Submitted via: dBpowerAMP V4.0
#
DISCID=2b101115
DTITLE=Various Artist - Hott Urban Volume 47 Can
DYEAR=2019
DGENRE=Urban
TTITLE0=Lil Pump ft. Lil Wayne - Be Like Me
TTITLE1=Trey Songz ft. Chris Brown - Chi Chi
TTITLE2=2 Chainz ft. Ariana Grande - Rule The World
TTITLE3=Blueface - Bleed It
TTITLE4=Cardi B and Bruno Mars - Please Me
TTITLE5=Offset ft. Cardi B - Clout
TTITLE6=Young Dolph - By Mistake
TTITLE7=Yo Gotti - Put A Date On It
TTITLE8=Wale ft. Megan Thee Stallion - Poledancer
TTITLE9=YK Osiris - Worth It
TTITLE10=Tyga ft. G-Eazy and Rich The Kid - Girls Have Fun
TTITLE11=Polo G and Lil Tjay - Pop Out
TTITLE12=Ariana Grande - 7 Rings
TTITLE13=Blueface ft. Cardi B And YG - Thotiana [Remix]
TTITLE14=Asiahn - Like You
TTITLE15=Gunna - Speed It Up
TTITLE16=Roddy Ricch - Die Young
TTITLE17=Elle Varner ft. Wale - Pour Me
TTITLE18=Kodak Black - Calling My Spirit
TTITLE19=John Legend - Preach
TTITLE20=Lucky Daye - Roll Some Mo
EXTD=
EXTT0=
EXTT1=
EXTT2=
EXTT3=
EXTT4=
EXTT5=
EXTT6=
EXTT7=
EXTT8=
EXTT9=
EXTT10=
EXTT11=
EXTT12=
EXTT13=
EXTT14=
EXTT15=
EXTT16=
EXTT17=
EXTT18=
EXTT19=
EXTT20=
PLAYORDER=
